# xmcd
#
# Track frame offsets:
# 150
# 18132
# 38123
# 62460
# 78746
# 99645
# 114572
# 124533
# 142425
# 158760
# 175119
# 184696
# 202177
# 221878
# 238751
# 256965
# 274307
# 288954
# 306924
# 324456
#
# Disc length: 4585 seconds
#
#
# Revision: 0
# Processed by: cddbd v1.5.2PL0 Copyright (c) Steve Scherf et al.
# Submitted via: FreeRIP 2.945 
#
DISCID=2c11e714
DTITLE=Belchior - 20 Super Sucessos
DYEAR=2007
DGENRE=Latin
TTITLE0=Apenas um Rapaz Ratino-americano
TTITLE1=Como Nossos Pais
TTITLE2=Divina Comedia Humana
TTITLE3=Beijo MOlhado
TTITLE4=Fotografia 3 x 4
TTITLE5=Galos Noites e Quintais
TTITLE6=Medo de Aviao
TTITLE7=Paralelas
TTITLE8=Mucuripe
TTITLE9=Noticia da Terra Civilizada
TTITLE10=Num Pais Feliz
TTITLE11=Ondas Tropicais
TTITLE12=Amor e Crime
TTITLE13=Ouro de Tolo
TTITLE14=S A
TTITLE15=Onde Jaz Meu Coracao
TTITLE16=Quinhentos Anos de Que?
TTITLE17=Senhoras do Amazonas
TTITLE18=Tudo Outra Vez
TTITLE19=BAhiuno
EXTD=
EXTT0=
EXTT1=
EXTT2=
EXTT3=
EXTT4=
EXTT5=
EXTT6=
EXTT7=
EXTT8=
EXTT9=
EXTT10=
EXTT11=
EXTT12=
EXTT13=
EXTT14=
EXTT15=
EXTT16=
EXTT17=
EXTT18=
EXTT19=
PLAYORDER=
